<svg width="24" height="24" viewBox="0 0 24 24" fill="none" xmlns="http://www.w3.org/2000/svg">
<g filter="url(#filter0_d)">
<mask id="path-1-outside-1" maskUnits="userSpaceOnUse" x="4" y="4" width="16" height="16" fill="black">
<rect fill="white" x="4" y="4" width="16" height="16"/>
<path fill-rule="evenodd" clip-rule="evenodd" d="M10.0303 19C10.0303 19 7.81107 17.3013 7.03031 16C6.24955 14.6987 4.77006 13.041 5.03031 12C5.29056 10.959 6.24955 10.6309 7.03031 11.4117C7.81107 12.1924 8.33701 13.8841 8.85751 13.6238C9.37802 13.3636 8.98764 10.8912 8.46713 9.45978C7.94663 8.02839 7.40396 5 8.46713 5C9.53031 5 9.53031 6 10.0303 7.5C10.5303 9 10.1399 11 10.5303 11C10.9207 11 11.0697 10.6506 11.0697 10C11.0697 9.82319 11.1043 9.67375 11.1747 9.54986C11.3633 9.21788 11.8084 9.0694 12.5303 9.0694C13.5216 9.0694 13.0303 11 13.5303 11C14.0303 11 14.0303 11.041 14.0303 10C14.0303 8.95899 14.4939 9.0694 15.4939 9.0694C16.4939 9.0694 16.0098 11 16.5303 11C17.0508 11 16.5303 10 17.0303 10C17.5303 10 18.0303 10.1577 18.0303 12.5C18.0303 14.8423 18.3111 14.959 17.5303 16C16.7496 17.041 16.0303 18 16.0303 18C16.0303 18 16.0303 19 15.4939 19C14.9576 19 14.6809 18 14.0303 18C13.3797 18 13.0303 19 13.0303 19H10.0303ZM16.0303 17V13H15.0303V17H16.0303ZM13.0303 16C13.0303 16.2709 13.2622 17 13.5303 17C13.8065 17 14.0303 16.2754 14.0303 16V14C14.0303 13.7291 13.7984 13 13.5303 13C13.2542 13 13.0303 13.7246 13.0303 14V16ZM11.0303 16C11.0303 16.2709 11.2622 17 11.5303 17C11.8065 17 12.0303 16.2754 12.0303 16V14C12.0303 13.7291 11.7984 13 11.5303 13C11.2542 13 11.0303 13.7246 11.0303 14V16Z"/>
</mask>
<path fill-rule="evenodd" clip-rule="evenodd" d="M10.0303 19C10.0303 19 7.81107 17.3013 7.03031 16C6.24955 14.6987 4.77006 13.041 5.03031 12C5.29056 10.959 6.24955 10.6309 7.03031 11.4117C7.81107 12.1924 8.33701 13.8841 8.85751 13.6238C9.37802 13.3636 8.98764 10.8912 8.46713 9.45978C7.94663 8.02839 7.40396 5 8.46713 5C9.53031 5 9.53031 6 10.0303 7.5C10.5303 9 10.1399 11 10.5303 11C10.9207 11 11.0697 10.6506 11.0697 10C11.0697 9.82319 11.1043 9.67375 11.1747 9.54986C11.3633 9.21788 11.8084 9.0694 12.5303 9.0694C13.5216 9.0694 13.0303 11 13.5303 11C14.0303 11 14.0303 11.041 14.0303 10C14.0303 8.95899 14.4939 9.0694 15.4939 9.0694C16.4939 9.0694 16.0098 11 16.5303 11C17.0508 11 16.5303 10 17.0303 10C17.5303 10 18.0303 10.1577 18.0303 12.5C18.0303 14.8423 18.3111 14.959 17.5303 16C16.7496 17.041 16.0303 18 16.0303 18C16.0303 18 16.0303 19 15.4939 19C14.9576 19 14.6809 18 14.0303 18C13.3797 18 13.0303 19 13.0303 19H10.0303ZM16.0303 17V13H15.0303V17H16.0303ZM13.0303 16C13.0303 16.2709 13.2622 17 13.5303 17C13.8065 17 14.0303 16.2754 14.0303 16V14C14.0303 13.7291 13.7984 13 13.5303 13C13.2542 13 13.0303 13.7246 13.0303 14V16ZM11.0303 16C11.0303 16.2709 11.2622 17 11.5303 17C11.8065 17 12.0303 16.2754 12.0303 16V14C12.0303 13.7291 11.7984 13 11.5303 13C11.2542 13 11.0303 13.7246 11.0303 14V16Z" fill="white"/>
<path d="M10.0303 19L9.42248 19.7941L9.69151 20H10.0303V19ZM7.03031 16L6.17282 16.5145L7.03031 16ZM5.03031 12L6.00045 12.2425L5.03031 12ZM7.03031 11.4117L6.3232 12.1188L6.3232 12.1188L7.03031 11.4117ZM8.85751 13.6238L8.4103 12.7294H8.4103L8.85751 13.6238ZM8.46713 9.45978L9.40693 9.11804L8.46713 9.45978ZM8.46713 5V4H8.46713L8.46713 5ZM10.5303 11L10.5303 12H10.5303L10.5303 11ZM11.0697 10H10.0697H11.0697ZM11.1747 9.54986L10.3052 9.05587L11.1747 9.54986ZM12.5303 9.0694V8.0694V9.0694ZM13.5303 11V10V11ZM14.0303 10L13.0303 10L14.0303 10ZM15.4939 9.0694V8.0694V9.0694ZM16.5303 11V12V11ZM17.0303 10V9V10ZM18.0303 12.5L17.0303 12.5L18.0303 12.5ZM16.0303 18L15.2303 17.4L15.0303 17.6667V18H16.0303ZM15.4939 19V18V19ZM14.0303 18V17V18ZM13.0303 19V20H13.7402L13.9744 19.3298L13.0303 19ZM16.0303 17V18H17.0303V17H16.0303ZM16.0303 13H17.0303V12H16.0303V13ZM15.0303 13V12H14.0303V13H15.0303ZM15.0303 17H14.0303V18H15.0303V17ZM10.0303 19C10.6381 18.2059 10.6382 18.206 10.6383 18.206C10.6383 18.206 10.6383 18.2061 10.6383 18.2061C10.6384 18.2061 10.6384 18.2061 10.6384 18.2061C10.6383 18.2061 10.6381 18.2059 10.6378 18.2057C10.6371 18.2052 10.636 18.2043 10.6343 18.203C10.6309 18.2004 10.6255 18.1962 10.6182 18.1905C10.6036 18.1792 10.5813 18.1618 10.5521 18.1388C10.4939 18.093 10.4086 18.0251 10.3033 17.9392C10.0922 17.7671 9.80334 17.5249 9.49217 17.2448C8.8424 16.6598 8.1941 15.996 7.8878 15.4855L6.17282 16.5145C6.64728 17.3053 7.49897 18.1415 8.15402 18.7312C8.49525 19.0384 8.80999 19.3022 9.03942 19.4893C9.15438 19.583 9.24856 19.658 9.31471 19.7101C9.3478 19.7361 9.37393 19.7565 9.39218 19.7707C9.4013 19.7778 9.40847 19.7833 9.41355 19.7872C9.4161 19.7892 9.41812 19.7907 9.41962 19.7919C9.42036 19.7924 9.42098 19.7929 9.42145 19.7933C9.42169 19.7935 9.4219 19.7936 9.42207 19.7938C9.42215 19.7938 9.42226 19.7939 9.4223 19.7939C9.4224 19.794 9.42248 19.7941 10.0303 19ZM7.8878 15.4855C7.67349 15.1283 7.41598 14.7543 7.17522 14.405C6.927 14.0448 6.69291 13.7057 6.49174 13.3785C6.28866 13.0483 6.14555 12.772 6.06565 12.5468C5.98235 12.312 6.00327 12.2313 6.00045 12.2425L4.06017 11.7575C3.92723 12.2892 4.03548 12.8061 4.18079 13.2156C4.3295 13.6347 4.55627 14.0493 4.78813 14.4263C5.02189 14.8064 5.2878 15.1907 5.52843 15.5399C5.77654 15.8999 5.99675 16.221 6.17282 16.5145L7.8878 15.4855ZM6.00045 12.2425C6.06865 11.9697 6.17603 11.964 6.13096 11.9779C6.11468 11.983 6.10996 11.9771 6.13062 11.9835C6.15502 11.991 6.22444 12.02 6.3232 12.1188L7.73742 10.7046C7.1495 10.1167 6.34341 9.8184 5.53928 10.0674C4.75446 10.3105 4.25222 10.9893 4.06017 11.7575L6.00045 12.2425ZM6.3232 12.1188C6.60033 12.3959 6.8354 12.8443 7.18507 13.4244C7.32759 13.6608 7.5232 13.9738 7.75645 14.2062C7.87594 14.3252 8.06744 14.4876 8.33287 14.5799C8.63698 14.6858 8.98325 14.679 9.30473 14.5182L8.4103 12.7294C8.60165 12.6337 8.81762 12.631 8.99029 12.6911C9.12428 12.7377 9.18319 12.8045 9.16798 12.7893C9.13183 12.7533 9.04957 12.6434 8.89794 12.3919C8.65932 11.996 8.24104 11.2082 7.73742 10.7046L6.3232 12.1188ZM9.30473 14.5182C9.68038 14.3304 9.85791 14.0055 9.94001 13.8003C10.0269 13.5832 10.0655 13.3562 10.0845 13.1621C10.123 12.7692 10.0984 12.3106 10.0459 11.8641C9.93993 10.9638 9.6956 9.91188 9.40693 9.11804L7.52734 9.80152C7.75917 10.4391 7.97028 11.339 8.05955 12.0978C8.10462 12.4809 8.11252 12.7787 8.09406 12.9672C8.08459 13.0639 8.07245 13.084 8.08305 13.0575C8.0889 13.0429 8.16477 12.8522 8.4103 12.7294L9.30473 14.5182ZM9.40693 9.11804C9.17472 8.47947 8.9311 7.45514 8.87064 6.62084C8.83941 6.18996 8.86547 5.91074 8.90442 5.77893C8.92261 5.71738 8.9214 5.76652 8.84644 5.84123C8.74638 5.94095 8.60095 6 8.46713 6L8.46713 4C8.06752 4 7.70648 4.15369 7.43463 4.42462C7.18788 4.67053 7.05872 4.96745 6.9864 5.21218C6.84435 5.69292 6.83926 6.26025 6.87587 6.7654C6.95107 7.80314 7.23904 9.0087 7.52734 9.80152L9.40693 9.11804ZM8.46713 6C8.56714 6 8.54337 6.01975 8.49222 5.98165C8.45803 5.95618 8.48481 5.95642 8.54684 6.0953C8.6114 6.23984 8.67418 6.43958 8.763 6.75091C8.84621 7.04255 8.94777 7.41465 9.08163 7.81623L10.979 7.18377C10.8629 6.83535 10.7769 6.51995 10.6863 6.20222C10.6012 5.90417 10.5038 5.57266 10.373 5.2797C10.2396 4.98108 10.0358 4.63757 9.68697 4.37773C9.32118 4.10525 8.89872 4 8.46713 4V6ZM9.08163 7.81623C9.27651 8.40087 9.30756 9.12723 9.32162 9.83243C9.32782 10.1438 9.33115 10.5104 9.36538 10.7869C9.38142 10.9165 9.41503 11.1341 9.51577 11.3439C9.62468 11.5708 9.93306 12 10.5303 12L10.5303 10C11.03 10 11.2651 10.3667 11.3187 10.4783C11.3641 10.5729 11.3603 10.6225 11.3502 10.5412C11.3322 10.3959 11.3287 10.1687 11.3212 9.79257C11.3079 9.12277 11.2841 8.09913 10.979 7.18377L9.08163 7.81623ZM10.5303 12C10.7815 12 11.0545 11.942 11.3082 11.7839C11.5604 11.6267 11.7287 11.411 11.8372 11.1984C12.0347 10.8111 12.0697 10.3632 12.0697 10H10.0697C10.0697 10.1278 10.0621 10.2154 10.0531 10.2713C10.0436 10.3301 10.0367 10.3265 10.0556 10.2896C10.078 10.2457 10.1359 10.1579 10.2503 10.0866C10.3663 10.0143 10.4743 10 10.5303 10L10.5303 12ZM12.0697 10C12.0697 9.97647 12.072 9.97213 12.0697 9.98203C12.0671 9.99299 12.0602 10.0157 12.0442 10.0439L10.3052 9.05587C10.1304 9.36361 10.0697 9.69278 10.0697 10H12.0697ZM12.0442 10.0439C11.9899 10.1394 11.9231 10.1499 11.9823 10.1292C12.0583 10.1027 12.2244 10.0694 12.5303 10.0694V8.0694C11.7898 8.0694 10.7924 8.19835 10.3052 9.05587L12.0442 10.0439ZM12.5303 10.0694C12.4833 10.0694 12.3928 10.0552 12.298 9.9944C12.2098 9.93795 12.1705 9.87497 12.1615 9.85891C12.1613 9.8585 12.1921 9.93023 12.2231 10.1653C12.2413 10.3037 12.2747 10.6803 12.3258 10.9128C12.3537 11.0399 12.4126 11.269 12.5609 11.4842C12.7423 11.7477 13.0718 12 13.5303 12V10C13.8638 10 14.0993 10.192 14.208 10.3499C14.2836 10.4595 14.2911 10.5377 14.2792 10.4839C14.2508 10.3544 14.2513 10.2483 14.206 9.90407C14.1733 9.65652 14.1099 9.2456 13.9074 8.8832C13.7972 8.68615 13.6297 8.47234 13.3768 8.31031C13.1171 8.14395 12.8251 8.0694 12.5303 8.0694V10.0694ZM13.5303 12C13.5865 12 13.8107 12.0072 13.9933 11.9749C14.1111 11.9541 14.2808 11.9088 14.4539 11.7961C14.6376 11.6765 14.7682 11.5182 14.8545 11.3527C14.9958 11.0816 15.0133 10.7906 15.021 10.6501C15.0307 10.4735 15.0303 10.2478 15.0303 10L13.0303 10C13.0303 10.2727 13.0299 10.4322 13.024 10.5407C13.0212 10.5922 13.0183 10.6048 13.02 10.5953C13.0213 10.5884 13.0334 10.5195 13.0811 10.4281C13.1361 10.3225 13.2277 10.2079 13.3626 10.1201C13.4868 10.0392 13.5979 10.0138 13.6454 10.0054C13.6882 9.99783 13.7093 9.99928 13.6763 9.99991C13.6409 10.0006 13.6102 10 13.5303 10V12ZM15.0303 10C15.0303 9.90471 15.0358 9.8448 15.0409 9.81087C15.0461 9.77673 15.0488 9.78345 15.0356 9.81382C15.0206 9.84823 14.9896 9.90294 14.9338 9.95822C14.8779 10.0137 14.8202 10.0468 14.7787 10.0645C14.7418 10.0802 14.7249 10.0806 14.7452 10.0775C14.7658 10.0743 14.8054 10.0702 14.8755 10.0679C14.9454 10.0657 15.0278 10.0657 15.1349 10.0666C15.236 10.0676 15.3629 10.0694 15.4939 10.0694V8.0694C15.293 8.0694 15.0133 8.06244 14.8113 8.06893C14.6029 8.07563 14.2951 8.0967 13.9955 8.22418C13.6403 8.37534 13.3626 8.64542 13.2012 9.01702C13.0618 9.33798 13.0303 9.68674 13.0303 10L15.0303 10ZM15.4939 10.0694C15.4497 10.0694 15.3623 10.056 15.2698 9.99755C15.1837 9.94313 15.1449 9.88229 15.1362 9.86699C15.1298 9.85573 15.1403 9.87108 15.1567 9.93348C15.1725 9.99386 15.1871 10.0723 15.202 10.1763C15.2222 10.3177 15.2596 10.6926 15.317 10.9317C15.3483 11.0622 15.4132 11.2923 15.5696 11.5066C15.7601 11.7676 16.0889 12 16.5303 12V10C16.8416 10 17.0717 10.1721 17.1851 10.3275C17.2644 10.4362 17.2739 10.5155 17.2618 10.465C17.2323 10.3421 17.2307 10.2343 17.1819 9.89312C17.1466 9.64658 17.0791 9.23609 16.8729 8.87512C16.7608 8.67883 16.5917 8.46716 16.3387 8.30716C16.0792 8.14309 15.7882 8.0694 15.4939 8.0694V10.0694ZM16.5303 12C16.7595 12 17.0329 11.9424 17.2797 11.7578C17.5216 11.5769 17.6429 11.3448 17.7034 11.1687C17.7612 11.0006 17.7772 10.845 17.7834 10.7467C17.7898 10.6457 17.7885 10.547 17.7879 10.4897C17.7872 10.4179 17.7872 10.3895 17.7883 10.3686C17.7895 10.3455 17.7902 10.3874 17.7679 10.4578C17.7438 10.534 17.6766 10.6934 17.5063 10.8279C17.3272 10.9692 17.1402 11 17.0303 11V9C16.7954 9 16.5153 9.06206 16.267 9.25808C16.0274 9.44723 15.9148 9.6847 15.861 9.85472C15.8091 10.0188 15.7959 10.1701 15.791 10.2642C15.7859 10.3605 15.7875 10.4571 15.7881 10.5103C15.7887 10.578 15.7884 10.6043 15.7874 10.6205C15.7862 10.6393 15.7864 10.5932 15.812 10.5188C15.8403 10.4365 15.913 10.2825 16.0818 10.1562C16.2555 10.0263 16.4313 10 16.5303 10V12ZM17.0303 11C17.116 11 17.0722 11.0105 16.9959 10.9771C16.8915 10.9313 16.8463 10.8621 16.8469 10.8632C16.8602 10.8866 16.9121 10.9973 16.9568 11.2782C17.0004 11.5527 17.0303 11.9454 17.0303 12.5L19.0303 12.5C19.0303 11.3192 18.9153 10.4589 18.5887 9.88014C18.4018 9.54899 18.1378 9.29395 17.7991 9.14542C17.4884 9.0092 17.1946 9 17.0303 9V11ZM17.0303 12.5C17.0303 13.1065 17.0486 13.5694 17.0628 13.9282C17.0776 14.3035 17.0849 14.5128 17.0749 14.6775C17.0667 14.8132 17.0481 14.8811 17.0193 14.948C16.9822 15.0341 16.9084 15.1625 16.7303 15.4L18.3303 16.6C18.5426 16.317 18.7265 16.0404 18.8563 15.7387C18.9945 15.4177 19.0521 15.1149 19.0713 14.7985C19.0887 14.5111 19.0746 14.187 19.0612 13.8491C19.0472 13.4946 19.0303 13.0647 19.0303 12.5L17.0303 12.5ZM16.7303 15.4C16.3399 15.9205 15.9649 16.4205 15.6875 16.7904C15.5488 16.9753 15.4345 17.1277 15.3549 17.2339C15.3151 17.287 15.2839 17.3285 15.2627 17.3568C15.2521 17.3709 15.244 17.3817 15.2386 17.389C15.2358 17.3926 15.2338 17.3954 15.2324 17.3972C15.2317 17.3981 15.2312 17.3988 15.2308 17.3993C15.2307 17.3995 15.2305 17.3997 15.2304 17.3998C15.2304 17.3999 15.2304 17.3999 15.2303 17.4C15.2303 17.4 15.2303 17.4 15.2303 17.4C15.2303 17.4 15.2303 17.4 16.0303 18C16.8303 18.6 16.8303 18.6 16.8303 18.6C16.8303 18.6 16.8303 18.6 16.8303 18.6C16.8304 18.5999 16.8304 18.5999 16.8304 18.5998C16.8305 18.5997 16.8307 18.5995 16.8308 18.5993C16.8312 18.5988 16.8317 18.5981 16.8324 18.5972C16.8338 18.5954 16.8358 18.5926 16.8386 18.589C16.844 18.5817 16.8521 18.5709 16.8627 18.5568C16.8839 18.5285 16.9151 18.487 16.9549 18.4339C17.0345 18.3277 17.1488 18.1753 17.2875 17.9904C17.5649 17.6205 17.9399 17.1205 18.3303 16.6L16.7303 15.4ZM16.0303 18C15.0303 18 15.0303 17.9997 15.0303 17.9995C15.0303 17.9994 15.0303 17.9992 15.0303 17.999C15.0303 17.9987 15.0303 17.9984 15.0303 17.9981C15.0303 17.9975 15.0303 17.9969 15.0303 17.9965C15.0303 17.9955 15.0303 17.9948 15.0303 17.9942C15.0303 17.9931 15.0303 17.9929 15.0303 17.9934C15.0303 17.9943 15.0302 17.9983 15.03 18.0047C15.0295 18.0177 15.0284 18.0397 15.0259 18.0672C15.0206 18.1269 15.0109 18.1905 14.9974 18.241C14.9804 18.3044 14.9759 18.2778 15.0249 18.2169C15.0547 18.1798 15.111 18.1223 15.2008 18.0744C15.2955 18.024 15.3985 18 15.4939 18V20C15.9913 20 16.3594 19.7488 16.5832 19.4706C16.783 19.2222 16.8791 18.9456 16.9291 18.759C16.9826 18.5595 17.0065 18.3731 17.018 18.2453C17.0239 18.1791 17.0269 18.1229 17.0285 18.0813C17.0293 18.0603 17.0298 18.0428 17.03 18.0291C17.0301 18.0223 17.0302 18.0164 17.0303 18.0115C17.0303 18.0091 17.0303 18.0069 17.0303 18.005C17.0303 18.004 17.0303 18.0031 17.0303 18.0023C17.0303 18.0019 17.0303 18.0015 17.0303 18.0011C17.0303 18.0009 17.0303 18.0006 17.0303 18.0005C17.0303 18.0003 17.0303 18 16.0303 18ZM15.4939 18C15.693 18 15.7977 18.0983 15.7739 18.0783C15.7372 18.0474 15.6932 17.9973 15.5594 17.8436C15.4554 17.7241 15.2789 17.5208 15.0556 17.3544C14.8151 17.1752 14.4708 17 14.0303 17V19C13.9152 19 13.8494 18.9498 13.8605 18.9581C13.8889 18.9792 13.937 19.0259 14.0506 19.1564C14.1343 19.2527 14.3007 19.4526 14.487 19.6092C14.6863 19.7767 15.0268 20 15.4939 20V18ZM14.0303 17C13.1706 17 12.6595 17.6411 12.4574 17.9407C12.3336 18.1242 12.2439 18.3007 12.1858 18.4275C12.1562 18.4923 12.1332 18.5476 12.1168 18.589C12.1086 18.6097 12.1019 18.6272 12.0969 18.6409C12.0943 18.6477 12.0922 18.6536 12.0904 18.6585C12.0895 18.661 12.0887 18.6632 12.088 18.6651C12.0877 18.6661 12.0874 18.667 12.0871 18.6678C12.0869 18.6683 12.0868 18.6687 12.0867 18.6691C12.0866 18.6693 12.0865 18.6695 12.0865 18.6696C12.0864 18.6699 12.0863 18.6702 13.0303 19C13.9744 19.3298 13.9743 19.3301 13.9742 19.3303C13.9741 19.3304 13.9741 19.3307 13.974 19.3308C13.9739 19.3312 13.9738 19.3315 13.9737 19.3318C13.9735 19.3324 13.9733 19.3329 13.9731 19.3334C13.9727 19.3344 13.9725 19.3352 13.9723 19.3357C13.9719 19.3369 13.9717 19.3371 13.9719 19.3366C13.9723 19.3357 13.9738 19.3317 13.9764 19.3251C13.9817 19.3118 13.991 19.289 14.0043 19.26C14.0321 19.1993 14.0704 19.1258 14.1153 19.0593C14.1372 19.0269 14.1572 19.0011 14.1744 18.9819C14.1828 18.9725 14.1895 18.9657 14.1946 18.961C14.1996 18.9562 14.2021 18.9543 14.2019 18.9545C14.2009 18.9552 14.1386 19 14.0303 19V17ZM13.0303 18H10.0303V20H13.0303V18ZM17.0303 17V13H15.0303V17H17.0303ZM16.0303 12H15.0303V14H16.0303V12ZM14.0303 13V17H16.0303V13H14.0303ZM15.0303 18H16.0303V16H15.0303V18ZM12.0303 16C12.0303 16.317 12.1377 16.7051 12.2589 16.9914C12.3235 17.1441 12.4217 17.3399 12.5654 17.5154C12.6808 17.6564 13.002 18 13.5303 18V16C13.7316 16 13.8832 16.0698 13.9707 16.1257C14.054 16.179 14.099 16.2315 14.1128 16.2483C14.1376 16.2786 14.1275 16.2752 14.1007 16.2118C14.0777 16.1576 14.0567 16.0927 14.0423 16.0338C14.0354 16.0054 14.0315 15.9845 14.0298 15.9727C14.0275 15.9576 14.0303 15.9687 14.0303 16H12.0303ZM13.5303 18C14.0502 18 14.3713 17.6699 14.4951 17.5203C14.6423 17.3426 14.7413 17.1443 14.8059 16.9903C14.9283 16.6987 15.0303 16.3132 15.0303 16H13.0303C13.0303 15.9593 13.0346 15.9716 13.018 16.0416C13.0041 16.1004 12.9837 16.164 12.9618 16.2163C12.936 16.2778 12.9272 16.2779 12.9547 16.2447C12.9701 16.2261 13.0165 16.1732 13.1009 16.1204C13.1901 16.0647 13.3378 16 13.5303 16V18ZM15.0303 16V14H13.0303V16H15.0303ZM15.0303 14C15.0303 13.683 14.9229 13.2949 14.8017 13.0086C14.7371 12.8559 14.639 12.6601 14.4952 12.4846C14.3798 12.3436 14.0586 12 13.5303 12V14C13.329 14 13.1774 13.9302 13.0899 13.8743C13.0067 13.821 12.9616 13.7685 12.9478 13.7517C12.923 13.7214 12.9331 13.7248 12.9599 13.7882C12.9829 13.8424 13.004 13.9073 13.0183 13.9662C13.0252 13.9946 13.0291 14.0155 13.0308 14.0273C13.0331 14.0424 13.0303 14.0313 13.0303 14H15.0303ZM13.5303 12C13.0104 12 12.6894 12.3301 12.5655 12.4797C12.4183 12.6574 12.3193 12.8557 12.2547 13.0097C12.1323 13.3013 12.0303 13.6868 12.0303 14H14.0303C14.0303 14.0407 14.026 14.0284 14.0426 13.9584C14.0565 13.8996 14.0769 13.836 14.0988 13.7837C14.1247 13.7222 14.1334 13.7221 14.1059 13.7553C14.0905 13.7739 14.0441 13.8268 13.9597 13.8796C13.8705 13.9353 13.7228 14 13.5303 14V12ZM12.0303 14V16H14.0303V14H12.0303ZM10.0303 16C10.0303 16.317 10.1377 16.7051 10.2589 16.9914C10.3235 17.1441 10.4217 17.3399 10.5654 17.5154C10.6808 17.6564 11.002 18 11.5303 18V16C11.7316 16 11.8832 16.0698 11.9707 16.1257C12.054 16.179 12.099 16.2315 12.1128 16.2483C12.1376 16.2786 12.1275 16.2752 12.1007 16.2118C12.0777 16.1576 12.0567 16.0927 12.0423 16.0338C12.0354 16.0054 12.0315 15.9845 12.0298 15.9727C12.0275 15.9576 12.0303 15.9687 12.0303 16H10.0303ZM11.5303 18C12.0502 18 12.3713 17.6699 12.4951 17.5203C12.6423 17.3426 12.7413 17.1443 12.8059 16.9903C12.9283 16.6987 13.0303 16.3132 13.0303 16H11.0303C11.0303 15.9593 11.0346 15.9716 11.018 16.0416C11.0041 16.1004 10.9837 16.164 10.9618 16.2163C10.936 16.2778 10.9272 16.2779 10.9547 16.2447C10.9701 16.2261 11.0165 16.1732 11.1009 16.1204C11.1901 16.0647 11.3378 16 11.5303 16V18ZM13.0303 16V14H11.0303V16H13.0303ZM13.0303 14C13.0303 13.683 12.9229 13.2949 12.8017 13.0086C12.7371 12.8559 12.639 12.6601 12.4952 12.4846C12.3798 12.3436 12.0586 12 11.5303 12V14C11.329 14 11.1774 13.9302 11.0899 13.8743C11.0067 13.821 10.9616 13.7685 10.9478 13.7517C10.923 13.7214 10.9331 13.7248 10.9599 13.7882C10.9829 13.8424 11.004 13.9073 11.0183 13.9662C11.0252 13.9946 11.0291 14.0155 11.0308 14.0273C11.0331 14.0424 11.0303 14.0313 11.0303 14H13.0303ZM11.5303 12C11.0104 12 10.6894 12.3301 10.5655 12.4797C10.4183 12.6574 10.3193 12.8557 10.2547 13.0097C10.1323 13.3013 10.0303 13.6868 10.0303 14H12.0303C12.0303 14.0407 12.026 14.0284 12.0426 13.9584C12.0565 13.8996 12.0769 13.836 12.0988 13.7837C12.1247 13.7222 12.1334 13.7221 12.1059 13.7553C12.0905 13.7739 12.0441 13.8268 11.9597 13.8796C11.8705 13.9353 11.7228 14 11.5303 14V12ZM10.0303 14V16H12.0303V14H10.0303Z" fill="black" mask="url(#path-1-outside-1)"/>
</g>
<defs>
<filter id="filter0_d" x="1.99995" y="3" width="19.0794" height="20" filterUnits="userSpaceOnUse" color-interpolation-filters="sRGB">
<feFlood flood-opacity="0" result="BackgroundImageFix"/>
<feColorMatrix in="SourceAlpha" type="matrix" values="0 0 0 0 0 0 0 0 0 0 0 0 0 0 0 0 0 0 127 0"/>
<feOffset dy="1"/>
<feGaussianBlur stdDeviation="1"/>
<feColorMatrix type="matrix" values="0 0 0 0 0 0 0 0 0 0 0 0 0 0 0 0 0 0 1 0"/>
<feBlend mode="normal" in2="BackgroundImageFix" result="effect1_dropShadow"/>
<feBlend mode="normal" in="SourceGraphic" in2="effect1_dropShadow" result="shape"/>
</filter>
</defs>
</svg>
