<svg xmlns="http://www.w3.org/2000/svg" fill="none" viewBox="0 0 24 24"><g filter="url(#filter0_d)"><mask id="a" width="16" height="16" x="4" y="4" fill="#000" maskUnits="userSpaceOnUse"><path fill="#fff" d="M4 4h16v16H4z"/><path fill-rule="evenodd" d="M10 19s-2.2-1.7-3-3c-.8-1.3-2.2-3-2-4 .3-1 1.2-1.4 2-.6.8.8 1.3 2.5 1.9 2.2.5-.2 0-2.7-.4-4.1C7.9 8 7.4 5 8.5 5c1 0 1 1 1.5 2.5s.1 3.5.5 3.5.6-.3.6-1v-.5c.3-.3.7-.4 1.4-.4 1 0 .5 1.9 1 1.9s.5 0 .5-1 .5-1 1.5-1 .5 2 1 2c.6 0 0-1 .5-1s1 .2 1 2.5.3 2.5-.5 3.5L16 18s0 1-.5 1-.8-1-1.5-1c-.6 0-1 1-1 1h-3zm6-2v-4h-1v4h1zm-3-1c0 .3.3 1 .5 1 .3 0 .5-.7.5-1v-2c0-.3-.2-1-.5-1-.2 0-.5.7-.5 1v2zm-2 0c0 .3.3 1 .5 1 .3 0 .5-.7.5-1v-2c0-.3-.2-1-.5-1-.2 0-.5.7-.5 1v2z" clip-rule="evenodd"/></mask><path fill="#fff" fill-rule="evenodd" d="M10 19s-2.2-1.7-3-3c-.8-1.3-2.2-3-2-4 .3-1 1.2-1.4 2-.6.8.8 1.3 2.5 1.9 2.2.5-.2 0-2.7-.4-4.1C7.9 8 7.4 5 8.5 5c1 0 1 1 1.5 2.5s.1 3.5.5 3.5.6-.3.6-1v-.5c.3-.3.7-.4 1.4-.4 1 0 .5 1.9 1 1.9s.5 0 .5-1 .5-1 1.5-1 .5 2 1 2c.6 0 0-1 .5-1s1 .2 1 2.5.3 2.5-.5 3.5L16 18s0 1-.5 1-.8-1-1.5-1c-.6 0-1 1-1 1h-3zm6-2v-4h-1v4h1zm-3-1c0 .3.3 1 .5 1 .3 0 .5-.7.5-1v-2c0-.3-.2-1-.5-1-.2 0-.5.7-.5 1v2zm-2 0c0 .3.3 1 .5 1 .3 0 .5-.7.5-1v-2c0-.3-.2-1-.5-1-.2 0-.5.7-.5 1v2z" clip-rule="evenodd"/><path fill="#000" d="M10 19l-.6.8.3.2h.3v-1zm-3-3l-.8.5.8-.5zm-2-4l1 .2-1-.2zm2-.6l-.7.7.7-.7zM9 13.6l-.5-.9.5 1zm-.4-4.1l1-.4-1 .4zm0-4.5V4v1zm2 6v1-1zm.6-1h-1 1zm0-.5l-.8-.4.9.4zm1.4-.4V8v1zm1 1.9v-1 1zm.5-1h-1 1zm1.5-1V8v1zm1 2v1-1zm.5-1V9v1zm1 2.5h-1 1zM16 18l-.8-.6-.2.3v.3h1zm-.5 1v-1 1zM14 18v-1 1zm-1 1v1h.7l.3-.7-1-.3zm3-2v1h1v-1h-1zm0-4h1v-1h-1v1zm-1 0v-1h-1v1h1zm0 4h-1v1h1v-1zm-5 2l.6-.8a18.4 18.4 0 01-2.7-2.7l-1.7 1a11 11 0 002 2.2 24.2 24.2 0 001.2 1l.6-.7zM8 15.5l-.7-1.1-.7-1c-.2-.4-.4-.6-.4-.9l-.1-.3-2-.4c0 .5 0 1 .2 1.4l.6 1.2.7 1.1.7 1 1.7-1zM6 12.2l.1-.2.2.1 1.4-1.4c-.6-.6-1.4-.9-2.2-.6-.7.2-1.2.9-1.4 1.7l1.9.4zm.3 0c.3.2.5.6.9 1.2.1.3.3.6.6.8l.5.4h1l-.9-1.9H9c.1 0 .2.1.2 0 0 0-.2 0-.3-.3-.2-.4-.7-1.2-1.2-1.7l-1.4 1.4zm3 2.3c.4-.2.6-.5.6-.7l.2-.6v-1.3L9.3 9l-1.9.7a11.2 11.2 0 01.6 3.2l.3-.3.9 1.8zm.1-5.4C9.2 8.5 9 7.5 9 6.6v-.8l-.4.2V4c-.4 0-.8.2-1 .4l-.5.8c-.2.5-.2 1-.1 1.6 0 1 .3 2.2.6 3l2-.7zM8.4 6c.2 0 .1 0 0 0l.1.1.3.7.3 1 1.9-.6-.3-1a7 7 0 00-.3-1l-.7-.8A2 2 0 008.5 4v2zm.7 1.8c.2.6.2 1.3.2 2v1l.2.5c.1.3.4.7 1 .7v-2c.5 0 .8.4.8.5 0 0 0 .1 0 0v-.7a9 9 0 00-.3-2.6l-2 .6zm1.4 4.2c.3 0 .6 0 .8-.2.3-.2.4-.4.5-.6l.3-1.2h-2v.3l.2-.2.2-.1v2zm1.6-2l-1.8-1c-.2.4-.2.7-.2 1h2zm0 0l-.1.1h.5V8c-.7 0-1.7.1-2.2 1l1.7 1zm.4 0h-.2l-.1-.1v.3l.1.7.3.6c.1.2.5.5 1 .5v-2c.3 0 .5.2.6.3V10c0-.2 0-.7-.3-1l-.5-.6c-.3-.2-.6-.2-.9-.2v2zm1 2h.5c.1 0 .3 0 .5-.2l.4-.4.1-.7V10h-2V10.4a.8.8 0 01.6-.4s.1 0 0 0v2zm1.5-2v-.2.2h-.2.7V8h-.7l-.8.2c-.4.2-.6.4-.8.8l-.2 1h2zm.5 0h-.2l-.2-.1.1.3.1.7.3.6c.2.3.5.5 1 .5v-2l.6.3V10c0-.3-.1-.7-.3-1l-.6-.6c-.2-.2-.5-.2-.8-.2v2zm1 2c.3 0 .5 0 .8-.2l.4-.6v-.5-.2-.1c0 .1 0 .3-.2.4-.2.2-.4.2-.5.2V9c-.2 0-.5 0-.7.3-.3.1-.4.4-.4.6l-.1.4V10.6c0-.2.1-.3.3-.4l.4-.2v2zm.5-1c.1 0 0 0 0 0l-.2-.1.2.4v1.2h2c0-1.2 0-2-.4-2.6A1.7 1.7 0 0017 9v2zm0 1.5a33.7 33.7 0 000 2.4c0 .1 0 .3-.3.5l1.6 1.2.6-.9.2-.9v-1-1.3h-2zm-.3 2.9a25005.9 25005.9 0 00-1.3 1.8l-.1.2.7.6.8.6.2-.2a1583.3 1583.3 0 011.3-1.8l-1.6-1.2zM16 18h-1v.2c0 .1 0 0 0 0l.2-.1.3-.1v2c.5 0 .9-.3 1-.5.3-.3.4-.6.4-.7a3 3 0 00.1-.8h-1zm-.5 0h.3l-.2-.2-.5-.4c-.3-.2-.6-.4-1-.4v2h-.2l.2.2.4.4c.2.2.5.4 1 .4v-2zM14 17c-.8 0-1.3.6-1.5 1a3.4 3.4 0 00-.4.6 153.7 153.7 0 001.9.7 1.4 1.4 0 01.2-.3H14v-2zm-1 1h-3v2h3v-2zm4-1v-4h-2v4h2zm-1-5h-1v2h1v-2zm-2 1v4h2v-4h-2zm1 5h1v-2h-1v2zm-3-2a2.8 2.8 0 00.6 1.5c0 .2.4.5 1 .5v-2l.4.1.1.1a1.2 1.2 0 010-.2h-2zm1.5 2c.6 0 .9-.3 1-.5l.3-.5.2-1h-2v.2h.1l.4-.2v2zm1.5-2v-2h-2v2h2zm0-2a2.8 2.8 0 00-.5-1.5c-.1-.2-.4-.5-1-.5v2l-.4-.1-.2-.1a1.2 1.2 0 01.1.2h2zm-1.5-2c-.5 0-.8.3-1 .5l-.2.5c-.2.3-.3.7-.3 1h2l.1-.2H14l-.5.2v-2zM12 14v2h2v-2h-2zm-2 2a2.8 2.8 0 00.6 1.5c0 .2.4.5 1 .5v-2l.4.1.1.1a1.2 1.2 0 010-.2h-2zm1.5 2c.6 0 .9-.3 1-.5l.3-.5.2-1h-2v.2h.1l.4-.2v2zm1.5-2v-2h-2v2h2zm0-2a2.8 2.8 0 00-.5-1.5c-.1-.2-.4-.5-1-.5v2l-.4-.1-.2-.1a1.2 1.2 0 01.1.2h2zm-1.5-2c-.5 0-.8.3-1 .5l-.2.5c-.2.3-.3.7-.3 1h2l.1-.2H12l-.5.2v-2zM10 14v2h2v-2h-2z" mask="url(#a)"/></g><defs><filter id="filter0_d" width="19.1" height="20" x="2" y="3" color-interpolation-filters="sRGB" filterUnits="userSpaceOnUse"><feFlood flood-opacity="0" result="BackgroundImageFix"/><feColorMatrix in="SourceAlpha" values="0 0 0 0 0 0 0 0 0 0 0 0 0 0 0 0 0 0 127 0"/><feOffset dy="1"/><feGaussianBlur stdDeviation="1"/><feColorMatrix values="0 0 0 0 0 0 0 0 0 0 0 0 0 0 0 0 0 0 1 0"/><feBlend in2="BackgroundImageFix" result="effect1_dropShadow"/><feBlend in="SourceGraphic" in2="effect1_dropShadow" result="shape"/></filter></defs></svg>