<svg xmlns="http://www.w3.org/2000/svg" fill="none" viewBox="0 0 22 21"><path fill="#191717" fill-rule="evenodd" d="M11 .9a10.1 10.1 0 00-3.2 19.7c.5 0 .7-.2.7-.5v-1.7C5.7 19 5 17 5 17 4.6 16 4 15.6 4 15.6c-1-.7 0-.7 0-.7 1 .1 1.6 1 1.6 1 .9 1.6 2.3 1.2 3 1 0-.7.3-1.2.6-1.4-2.3-.3-4.7-1.2-4.7-5 0-1.1.4-2 1-2.7 0-.3-.4-1.3.2-2.7 0 0 .8-.3 2.8 1a9.8 9.8 0 015 0c2-1.3 2.8-1 2.8-1 .6 1.4.2 2.4.1 2.7a4 4 0 011 2.7c0 3.9-2.3 4.7-4.6 5 .4.3.7.9.7 1.8v2.8c0 .3.2.6.7.5A10.1 10.1 0 0011 .9z" clip-rule="evenodd"/></svg>