<svg xmlns="http://www.w3.org/2000/svg" fill="none" viewBox="0 0 120 120"><path fill="#D1D2D6" d="M14 14h92v92H14V14z"/><path fill="#F5F6F7" d="M38.2 90.9l7-4.3c1.4 2.4 2.6 4.5 5.6 4.5 2.8 0 4.6-1.1 4.6-5.5V56.2h8.7v29.6c0 9-5.3 13-13 13-6.9 0-10.9-3.6-13-8m30.7-.8l7-4.1c1.9 3 4.3 5.2 8.5 5.2 3.6 0 5.9-1.8 5.9-4.2 0-3-2.4-4-6.3-5.8l-2.2-.9c-6.2-2.7-10.3-6-10.3-13 0-6.5 4.9-11.5 12.6-11.5 5.5 0 9.5 2 12.3 7L89.6 67c-1.5-2.7-3.1-3.7-5.6-3.7-2.5 0-4.1 1.6-4.1 3.7 0 2.6 1.6 3.6 5.3 5.2l2.1 1c7.4 3.1 11.5 6.3 11.5 13.5 0 7.8-6 12-14.3 12-8 0-13.2-3.7-15.7-8.7"/></svg>